<svg width="61" height="47" viewBox="0 0 61 47" fill="none" xmlns="http://www.w3.org/2000/svg">
<g opacity="0.4">
<mask id="path-1-inside-1_555_75" fill="white">
<path d="M48.7787 45.4469C52.184 47.8989 57.0356 47.1396 58.5902 43.2419C59.4002 41.2112 59.9962 39.0943 60.364 36.9248C61.1571 32.2471 60.8685 27.4499 59.5202 22.901C58.1719 18.3521 55.7998 14.1724 52.5858 10.6824C49.3717 7.19235 45.4011 4.48474 40.9785 2.76715C36.5558 1.04956 31.7985 0.36761 27.0714 0.773609C22.3443 1.17961 17.773 2.66276 13.7079 5.10933C9.64288 7.55591 6.19212 10.9009 3.62025 14.8879C2.42749 16.7369 1.43845 18.7012 0.665578 20.7463C-0.817925 24.6716 2.24946 28.5064 6.41719 28.9954L6.77229 29.037C10.7439 29.503 14.2224 26.4857 16.3901 23.1253C17.7041 21.0883 19.4672 19.3793 21.5441 18.1293C23.621 16.8793 25.9566 16.1215 28.3718 15.9141C30.7869 15.7067 33.2175 16.0551 35.4772 16.9326C37.7368 17.8102 39.7655 19.1936 41.4076 20.9767C43.0497 22.7598 44.2617 24.8953 44.9505 27.2194C45.6394 29.5435 45.7869 31.9945 45.3816 34.3845C44.7131 38.3271 45.2434 42.9012 48.4885 45.2379L48.7787 45.4469Z"/>
</mask>
<path d="M48.7787 45.4469C52.184 47.8989 57.0356 47.1396 58.5902 43.2419C59.4002 41.2112 59.9962 39.0943 60.364 36.9248C61.1571 32.2471 60.8685 27.4499 59.5202 22.901C58.1719 18.3521 55.7998 14.1724 52.5858 10.6824C49.3717 7.19235 45.4011 4.48474 40.9785 2.76715C36.5558 1.04956 31.7985 0.36761 27.0714 0.773609C22.3443 1.17961 17.773 2.66276 13.7079 5.10933C9.64288 7.55591 6.19212 10.9009 3.62025 14.8879C2.42749 16.7369 1.43845 18.7012 0.665578 20.7463C-0.817925 24.6716 2.24946 28.5064 6.41719 28.9954L6.77229 29.037C10.7439 29.503 14.2224 26.4857 16.3901 23.1253C17.7041 21.0883 19.4672 19.3793 21.5441 18.1293C23.621 16.8793 25.9566 16.1215 28.3718 15.9141C30.7869 15.7067 33.2175 16.0551 35.4772 16.9326C37.7368 17.8102 39.7655 19.1936 41.4076 20.9767C43.0497 22.7598 44.2617 24.8953 44.9505 27.2194C45.6394 29.5435 45.7869 31.9945 45.3816 34.3845C44.7131 38.3271 45.2434 42.9012 48.4885 45.2379L48.7787 45.4469Z" stroke="#FFAC32" mask="url(#path-1-inside-1_555_75)"/>
</g>
</svg>
