<svg width="86" height="82" viewBox="0 0 86 82" fill="none" xmlns="http://www.w3.org/2000/svg">
<g filter="url(#filter0_f_555_84)">
<mask id="path-1-inside-1_555_84" fill="white">
<path d="M53.9751 8.02137C55.1429 4.77114 58.7583 3.04087 61.7807 4.71202C66.2165 7.16466 70.1504 10.4676 73.3468 14.4525C77.8534 20.0708 80.7183 26.826 81.6249 33.9712C82.5314 41.1163 81.4442 48.3729 78.4835 54.9386C75.5228 61.5043 70.8039 67.1233 64.8487 71.1742C58.8935 75.2251 51.934 77.5501 44.7397 77.8922C37.5454 78.2342 30.3967 76.5799 24.0841 73.1121C17.7715 69.6444 12.5408 64.4984 8.97062 58.2432C6.43834 53.8065 4.81136 48.9343 4.15955 43.9077C3.71542 40.4827 6.65274 37.7556 10.1047 37.8633C13.5567 37.971 16.1937 40.8923 16.8947 44.274C17.4577 46.9895 18.4453 49.6127 19.8327 52.0436C22.2595 56.2954 25.8149 59.7933 30.1057 62.1504C34.3966 64.5074 39.2557 65.6319 44.1458 65.3995C49.0359 65.167 53.7665 63.5866 57.8144 60.8331C61.8623 58.0796 65.0698 54.2603 67.0822 49.7974C69.0947 45.3345 69.8337 40.402 69.2175 35.5453C68.6013 30.6886 66.654 26.097 63.5908 22.2781C61.8394 20.0947 59.7624 18.2125 57.4435 16.6915C54.5557 14.7973 52.8073 11.2716 53.9751 8.02137Z"/>
</mask>
<path d="M53.9751 8.02137C55.1429 4.77114 58.7583 3.04087 61.7807 4.71202C66.2165 7.16466 70.1504 10.4676 73.3468 14.4525C77.8534 20.0708 80.7183 26.826 81.6249 33.9712C82.5314 41.1163 81.4442 48.3729 78.4835 54.9386C75.5228 61.5043 70.8039 67.1233 64.8487 71.1742C58.8935 75.2251 51.934 77.5501 44.7397 77.8922C37.5454 78.2342 30.3967 76.5799 24.0841 73.1121C17.7715 69.6444 12.5408 64.4984 8.97062 58.2432C6.43834 53.8065 4.81136 48.9343 4.15955 43.9077C3.71542 40.4827 6.65274 37.7556 10.1047 37.8633C13.5567 37.971 16.1937 40.8923 16.8947 44.274C17.4577 46.9895 18.4453 49.6127 19.8327 52.0436C22.2595 56.2954 25.8149 59.7933 30.1057 62.1504C34.3966 64.5074 39.2557 65.6319 44.1458 65.3995C49.0359 65.167 53.7665 63.5866 57.8144 60.8331C61.8623 58.0796 65.0698 54.2603 67.0822 49.7974C69.0947 45.3345 69.8337 40.402 69.2175 35.5453C68.6013 30.6886 66.654 26.097 63.5908 22.2781C61.8394 20.0947 59.7624 18.2125 57.4435 16.6915C54.5557 14.7973 52.8073 11.2716 53.9751 8.02137Z" stroke="#47BD8F" mask="url(#path-1-inside-1_555_84)"/>
</g>
<defs>
<filter id="filter0_f_555_84" x="0.11499" y="0.0644531" width="85.8206" height="81.8711" filterUnits="userSpaceOnUse" color-interpolation-filters="sRGB">
<feFlood flood-opacity="0" result="BackgroundImageFix"/>
<feBlend mode="normal" in="SourceGraphic" in2="BackgroundImageFix" result="shape"/>
<feGaussianBlur stdDeviation="2" result="effect1_foregroundBlur_555_84"/>
</filter>
</defs>
</svg>
