<svg width="177" height="173" viewBox="0 0 177 173" fill="none" xmlns="http://www.w3.org/2000/svg">
<g opacity="0.4" filter="url(#filter0_f_555_59)">
<mask id="path-1-inside-1_555_59" fill="white">
<path d="M101.63 47.6278C103.022 43.7542 107.33 41.692 110.933 43.6837C116.219 46.6068 120.908 50.5432 124.717 55.2925C130.088 61.9885 133.503 70.0394 134.583 78.555C135.663 87.0706 134.368 95.7191 130.839 103.544C127.311 111.369 121.687 118.066 114.589 122.894C107.492 127.722 99.1972 130.493 90.6231 130.9C82.0489 131.308 73.529 129.336 66.0056 125.203C58.4821 121.071 52.2482 114.938 47.9932 107.483C44.9752 102.195 43.0362 96.3881 42.2593 90.3974C41.73 86.3155 45.2307 83.0653 49.3448 83.1937C53.4589 83.3221 56.6017 86.8036 57.4372 90.834C58.1081 94.0703 59.2852 97.1967 60.9388 100.094C63.831 105.161 68.0683 109.33 73.1822 112.139C78.296 114.948 84.0872 116.289 89.9153 116.011C95.7433 115.734 101.381 113.851 106.206 110.569C111.03 107.288 114.853 102.736 117.251 97.4168C119.65 92.0979 120.53 86.2193 119.796 80.4311C119.062 74.6428 116.741 69.1704 113.09 64.619C111.003 62.0169 108.527 59.7737 105.764 57.9609C102.322 55.7034 100.238 51.5015 101.63 47.6278Z"/>
</mask>
<path d="M101.63 47.6278C103.022 43.7542 107.33 41.692 110.933 43.6837C116.219 46.6068 120.908 50.5432 124.717 55.2925C130.088 61.9885 133.503 70.0394 134.583 78.555C135.663 87.0706 134.368 95.7191 130.839 103.544C127.311 111.369 121.687 118.066 114.589 122.894C107.492 127.722 99.1972 130.493 90.6231 130.9C82.0489 131.308 73.529 129.336 66.0056 125.203C58.4821 121.071 52.2482 114.938 47.9932 107.483C44.9752 102.195 43.0362 96.3881 42.2593 90.3974C41.73 86.3155 45.2307 83.0653 49.3448 83.1937C53.4589 83.3221 56.6017 86.8036 57.4372 90.834C58.1081 94.0703 59.2852 97.1967 60.9388 100.094C63.831 105.161 68.0683 109.33 73.1822 112.139C78.296 114.948 84.0872 116.289 89.9153 116.011C95.7433 115.734 101.381 113.851 106.206 110.569C111.03 107.288 114.853 102.736 117.251 97.4168C119.65 92.0979 120.53 86.2193 119.796 80.4311C119.062 74.6428 116.741 69.1704 113.09 64.619C111.003 62.0169 108.527 59.7737 105.764 57.9609C102.322 55.7034 100.238 51.5015 101.63 47.6278Z" fill="#D9D9D9"/>
<path d="M101.63 47.6278C103.022 43.7542 107.33 41.692 110.933 43.6837C116.219 46.6068 120.908 50.5432 124.717 55.2925C130.088 61.9885 133.503 70.0394 134.583 78.555C135.663 87.0706 134.368 95.7191 130.839 103.544C127.311 111.369 121.687 118.066 114.589 122.894C107.492 127.722 99.1972 130.493 90.6231 130.9C82.0489 131.308 73.529 129.336 66.0056 125.203C58.4821 121.071 52.2482 114.938 47.9932 107.483C44.9752 102.195 43.0362 96.3881 42.2593 90.3974C41.73 86.3155 45.2307 83.0653 49.3448 83.1937C53.4589 83.3221 56.6017 86.8036 57.4372 90.834C58.1081 94.0703 59.2852 97.1967 60.9388 100.094C63.831 105.161 68.0683 109.33 73.1822 112.139C78.296 114.948 84.0872 116.289 89.9153 116.011C95.7433 115.734 101.381 113.851 106.206 110.569C111.03 107.288 114.853 102.736 117.251 97.4168C119.65 92.0979 120.53 86.2193 119.796 80.4311C119.062 74.6428 116.741 69.1704 113.09 64.619C111.003 62.0169 108.527 59.7737 105.764 57.9609C102.322 55.7034 100.238 51.5015 101.63 47.6278Z" stroke="#00FF9C" stroke-width="6" mask="url(#path-1-inside-1_555_59)"/>
</g>
<defs>
<filter id="filter0_f_555_59" x="0.206177" y="0.912109" width="176.747" height="172.041" filterUnits="userSpaceOnUse" color-interpolation-filters="sRGB">
<feFlood flood-opacity="0" result="BackgroundImageFix"/>
<feBlend mode="normal" in="SourceGraphic" in2="BackgroundImageFix" result="shape"/>
<feGaussianBlur stdDeviation="21" result="effect1_foregroundBlur_555_59"/>
</filter>
</defs>
</svg>
