<svg width="187" height="134" viewBox="0 0 187 134" fill="none" xmlns="http://www.w3.org/2000/svg">
<g opacity="0.5">
<mask id="path-1-inside-1_555_88" fill="white">
<path d="M173.303 100.567C180.456 101.181 186.849 95.8604 186.459 88.6914C185.913 78.6498 183.738 68.7341 179.992 59.3395C174.636 45.9065 166.216 33.91 155.404 24.306C144.593 14.7019 131.687 7.75576 117.716 4.02087C103.745 0.28598 89.0954 -0.134377 74.9334 2.79329C60.7714 5.72096 47.4889 11.9157 36.1441 20.884C24.7994 29.8523 15.706 41.3463 9.58847 54.4501C3.47093 67.5539 0.498385 81.9054 0.907616 96.361C1.19383 106.471 3.12861 116.436 6.60894 125.871C9.09366 132.607 17.0718 134.957 23.3951 131.557C29.7185 128.157 31.9505 120.287 29.8359 113.426C28.0624 107.671 27.0685 101.684 26.897 95.6253C26.6023 85.2169 28.7426 74.8836 33.1473 65.4486C37.5521 56.0136 44.0995 47.7377 52.2679 41.2804C60.4364 34.823 70.0001 30.3627 80.197 28.2547C90.3939 26.1467 100.942 26.4494 111.001 29.1386C121.061 31.8278 130.353 36.8291 138.138 43.7442C145.922 50.6593 151.985 59.297 155.841 68.9691C158.086 74.5994 159.547 80.4897 160.201 86.4758C160.98 93.613 166.15 99.9525 173.303 100.567Z"/>
</mask>
<path d="M173.303 100.567C180.456 101.181 186.849 95.8604 186.459 88.6914C185.913 78.6498 183.738 68.7341 179.992 59.3395C174.636 45.9065 166.216 33.91 155.404 24.306C144.593 14.7019 131.687 7.75576 117.716 4.02087C103.745 0.28598 89.0954 -0.134377 74.9334 2.79329C60.7714 5.72096 47.4889 11.9157 36.1441 20.884C24.7994 29.8523 15.706 41.3463 9.58847 54.4501C3.47093 67.5539 0.498385 81.9054 0.907616 96.361C1.19383 106.471 3.12861 116.436 6.60894 125.871C9.09366 132.607 17.0718 134.957 23.3951 131.557C29.7185 128.157 31.9505 120.287 29.8359 113.426C28.0624 107.671 27.0685 101.684 26.897 95.6253C26.6023 85.2169 28.7426 74.8836 33.1473 65.4486C37.5521 56.0136 44.0995 47.7377 52.2679 41.2804C60.4364 34.823 70.0001 30.3627 80.197 28.2547C90.3939 26.1467 100.942 26.4494 111.001 29.1386C121.061 31.8278 130.353 36.8291 138.138 43.7442C145.922 50.6593 151.985 59.297 155.841 68.9691C158.086 74.5994 159.547 80.4897 160.201 86.4758C160.98 93.613 166.15 99.9525 173.303 100.567Z" stroke="#1E7DBA" stroke-width="1.83367" mask="url(#path-1-inside-1_555_88)"/>
</g>
</svg>
