<svg width="59" height="78" viewBox="0 0 59 78" fill="none" xmlns="http://www.w3.org/2000/svg">
<g opacity="0.2">
<mask id="path-1-inside-1_555_56" fill="white">
<path d="M1.12348 8.42352C-0.0352592 5.22405 1.6166 1.64478 4.94645 0.943808C13.2745 -0.809339 21.9805 -0.118558 29.9922 3.00324C39.9285 6.87492 48.1211 14.2224 53.0476 23.6802C57.974 33.138 59.2991 44.0627 56.7766 54.424C54.7426 62.7784 50.3187 70.3084 44.1088 76.1279C41.6258 78.4547 37.746 77.7568 35.7884 74.9734C33.8308 72.1901 34.5559 68.3815 36.9085 65.923C40.7372 61.922 43.4767 56.9592 44.8035 51.509C46.6198 44.0487 45.6657 36.1827 42.1186 29.3729C38.5715 22.5632 32.6726 17.2728 25.5183 14.4851C20.2917 12.4486 14.6548 11.8489 9.18179 12.6931C5.81872 13.2118 2.28223 11.623 1.12348 8.42352Z"/>
</mask>
<path d="M1.12348 8.42352C-0.0352592 5.22405 1.6166 1.64478 4.94645 0.943808C13.2745 -0.809339 21.9805 -0.118558 29.9922 3.00324C39.9285 6.87492 48.1211 14.2224 53.0476 23.6802C57.974 33.138 59.2991 44.0627 56.7766 54.424C54.7426 62.7784 50.3187 70.3084 44.1088 76.1279C41.6258 78.4547 37.746 77.7568 35.7884 74.9734C33.8308 72.1901 34.5559 68.3815 36.9085 65.923C40.7372 61.922 43.4767 56.9592 44.8035 51.509C46.6198 44.0487 45.6657 36.1827 42.1186 29.3729C38.5715 22.5632 32.6726 17.2728 25.5183 14.4851C20.2917 12.4486 14.6548 11.8489 9.18179 12.6931C5.81872 13.2118 2.28223 11.623 1.12348 8.42352Z" stroke="#FF5C5D" mask="url(#path-1-inside-1_555_56)"/>
</g>
</svg>
