<svg width="59" height="78" viewBox="0 0 59 78" fill="none" xmlns="http://www.w3.org/2000/svg">
<g opacity="0.2">
<mask id="path-1-inside-1_555_80" fill="white">
<path d="M1.12373 8.42352C-0.0350144 5.22405 1.61684 1.64478 4.94669 0.943808C13.2747 -0.809339 21.9807 -0.118558 29.9925 3.00324C39.9287 6.87492 48.1214 14.2224 53.0478 23.6802C57.9742 33.138 59.2993 44.0627 56.7768 54.424C54.7429 62.7784 50.3189 70.3084 44.109 76.1279C41.626 78.4547 37.7463 77.7568 35.7886 74.9734V74.9734C33.831 72.1901 34.5561 68.3815 36.9087 65.923C40.7374 61.922 43.4769 56.9592 44.8038 51.5091C46.62 44.0487 45.6659 36.1827 42.1188 29.3729C38.5717 22.5632 32.6728 17.2728 25.5185 14.4851C20.292 12.4486 14.6551 11.8489 9.18204 12.6931C5.81897 13.2118 2.28247 11.623 1.12373 8.42352V8.42352Z"/>
</mask>
<path d="M1.12373 8.42352C-0.0350144 5.22405 1.61684 1.64478 4.94669 0.943808C13.2747 -0.809339 21.9807 -0.118558 29.9925 3.00324C39.9287 6.87492 48.1214 14.2224 53.0478 23.6802C57.9742 33.138 59.2993 44.0627 56.7768 54.424C54.7429 62.7784 50.3189 70.3084 44.109 76.1279C41.626 78.4547 37.7463 77.7568 35.7886 74.9734V74.9734C33.831 72.1901 34.5561 68.3815 36.9087 65.923C40.7374 61.922 43.4769 56.9592 44.8038 51.5091C46.62 44.0487 45.6659 36.1827 42.1188 29.3729C38.5717 22.5632 32.6728 17.2728 25.5185 14.4851C20.292 12.4486 14.6551 11.8489 9.18204 12.6931C5.81897 13.2118 2.28247 11.623 1.12373 8.42352V8.42352Z" stroke="#FF5C5D" mask="url(#path-1-inside-1_555_80)"/>
</g>
</svg>
