<svg width="86" height="82" viewBox="0 0 86 82" fill="none" xmlns="http://www.w3.org/2000/svg">
<g filter="url(#filter0_f_555_58)">
<mask id="path-1-inside-1_555_58" fill="white">
<path d="M53.9753 8.02137C55.1431 4.77114 58.7585 3.04087 61.7809 4.71202C66.2167 7.16466 70.1507 10.4676 73.3471 14.4525C77.8536 20.0708 80.7186 26.826 81.6251 33.9712C82.5316 41.1163 81.4444 48.3729 78.4837 54.9386C75.523 61.5043 70.8041 67.1233 64.8489 71.1742C58.8937 75.2251 51.9342 77.5501 44.7399 77.8922C37.5457 78.2342 30.397 76.5799 24.0843 73.1121C17.7717 69.6444 12.5411 64.4984 8.97087 58.2432C6.43859 53.8065 4.8116 48.9343 4.15979 43.9077C3.71567 40.4827 6.65298 37.7556 10.105 37.8633C13.5569 37.971 16.1939 40.8923 16.895 44.274C17.4579 46.9895 18.4455 49.6127 19.833 52.0436C22.2597 56.2954 25.8151 59.7933 30.106 62.1504C34.3968 64.5074 39.2559 65.6319 44.146 65.3995C49.0362 65.167 53.7667 63.5866 57.8146 60.8331C61.8625 58.0796 65.07 54.2603 67.0825 49.7974C69.0949 45.3345 69.8339 40.402 69.2178 35.5453C68.6016 30.6886 66.6542 26.097 63.591 22.2781C61.8397 20.0947 59.7626 18.2125 57.4437 16.6915C54.5559 14.7973 52.8075 11.2716 53.9753 8.02137Z"/>
</mask>
<path d="M53.9753 8.02137C55.1431 4.77114 58.7585 3.04087 61.7809 4.71202C66.2167 7.16466 70.1507 10.4676 73.3471 14.4525C77.8536 20.0708 80.7186 26.826 81.6251 33.9712C82.5316 41.1163 81.4444 48.3729 78.4837 54.9386C75.523 61.5043 70.8041 67.1233 64.8489 71.1742C58.8937 75.2251 51.9342 77.5501 44.7399 77.8922C37.5457 78.2342 30.397 76.5799 24.0843 73.1121C17.7717 69.6444 12.5411 64.4984 8.97087 58.2432C6.43859 53.8065 4.8116 48.9343 4.15979 43.9077C3.71567 40.4827 6.65298 37.7556 10.105 37.8633C13.5569 37.971 16.1939 40.8923 16.895 44.274C17.4579 46.9895 18.4455 49.6127 19.833 52.0436C22.2597 56.2954 25.8151 59.7933 30.106 62.1504C34.3968 64.5074 39.2559 65.6319 44.146 65.3995C49.0362 65.167 53.7667 63.5866 57.8146 60.8331C61.8625 58.0796 65.07 54.2603 67.0825 49.7974C69.0949 45.3345 69.8339 40.402 69.2178 35.5453C68.6016 30.6886 66.6542 26.097 63.591 22.2781C61.8397 20.0947 59.7626 18.2125 57.4437 16.6915C54.5559 14.7973 52.8075 11.2716 53.9753 8.02137Z" stroke="#47BD8F" mask="url(#path-1-inside-1_555_58)"/>
</g>
<defs>
<filter id="filter0_f_555_58" x="0.115234" y="0.0644531" width="85.8206" height="81.8711" filterUnits="userSpaceOnUse" color-interpolation-filters="sRGB">
<feFlood flood-opacity="0" result="BackgroundImageFix"/>
<feBlend mode="normal" in="SourceGraphic" in2="BackgroundImageFix" result="shape"/>
<feGaussianBlur stdDeviation="2" result="effect1_foregroundBlur_555_58"/>
</filter>
</defs>
</svg>
