<svg width="84" height="101" viewBox="0 0 84 101" fill="none" xmlns="http://www.w3.org/2000/svg">
<g opacity="0.4">
<mask id="path-1-inside-1_555_73" fill="white">
<path d="M43.9822 6.48533C43.2913 2.60329 39.5601 -0.0314438 35.8124 1.19437C30.5631 2.91136 25.6122 5.4747 21.161 8.79721C14.7963 13.5479 9.62912 19.7195 6.07114 26.8202C2.51317 33.9208 0.662749 41.7543 0.667303 49.6965C0.671857 57.6387 2.53127 65.4701 6.09738 72.5667C9.66349 79.6633 14.8377 85.8289 21.2079 90.5723C27.578 95.3158 34.9679 98.5059 42.7888 99.8885C50.6097 101.271 58.6455 100.808 66.2558 98.5362C71.5783 96.9474 76.5897 94.5045 81.1001 91.3171C84.3203 89.0415 84.4329 84.4753 81.7302 81.6041C79.0276 78.733 74.5357 78.6676 71.1965 80.7646C68.3958 82.5234 65.3611 83.9017 62.1713 84.8539C56.6917 86.4897 50.9058 86.8231 45.2746 85.8276C39.6434 84.832 34.3225 82.5351 29.7359 79.1197C25.1493 75.7044 21.4237 71.265 18.8561 66.1553C16.2884 61.0456 14.9496 55.4069 14.9463 49.6884C14.943 43.9698 16.2754 38.3295 18.8372 33.2169C21.399 28.1043 25.1195 23.6607 29.7021 20.24C32.3699 18.2488 35.2868 16.6363 38.3695 15.4387C42.0449 14.0108 44.6731 10.3674 43.9822 6.48533Z"/>
</mask>
<path d="M43.9822 6.48533C43.2913 2.60329 39.5601 -0.0314438 35.8124 1.19437C30.5631 2.91136 25.6122 5.4747 21.161 8.79721C14.7963 13.5479 9.62912 19.7195 6.07114 26.8202C2.51317 33.9208 0.662749 41.7543 0.667303 49.6965C0.671857 57.6387 2.53127 65.4701 6.09738 72.5667C9.66349 79.6633 14.8377 85.8289 21.2079 90.5723C27.578 95.3158 34.9679 98.5059 42.7888 99.8885C50.6097 101.271 58.6455 100.808 66.2558 98.5362C71.5783 96.9474 76.5897 94.5045 81.1001 91.3171C84.3203 89.0415 84.4329 84.4753 81.7302 81.6041C79.0276 78.733 74.5357 78.6676 71.1965 80.7646C68.3958 82.5234 65.3611 83.9017 62.1713 84.8539C56.6917 86.4897 50.9058 86.8231 45.2746 85.8276C39.6434 84.832 34.3225 82.5351 29.7359 79.1197C25.1493 75.7044 21.4237 71.265 18.8561 66.1553C16.2884 61.0456 14.9496 55.4069 14.9463 49.6884C14.943 43.9698 16.2754 38.3295 18.8372 33.2169C21.399 28.1043 25.1195 23.6607 29.7021 20.24C32.3699 18.2488 35.2868 16.6363 38.3695 15.4387C42.0449 14.0108 44.6731 10.3674 43.9822 6.48533Z" stroke="#793D99" mask="url(#path-1-inside-1_555_73)"/>
</g>
</svg>
